<?xml version="1.0" encoding="utf-8"?>
<!-- Generator: Adobe Illustrator 16.0.0, SVG Export Plug-In . SVG Version: 6.00 Build 0)  -->
<!DOCTYPE svg PUBLIC "-//W3C//DTD SVG 1.1//EN" "http://www.w3.org/Graphics/SVG/1.1/DTD/svg11.dtd">
<svg version="1.1" id="Layer_1" xmlns="http://www.w3.org/2000/svg" xmlns:xlink="http://www.w3.org/1999/xlink" x="0px" y="0px"
	 width="16px" height="16px" viewBox="-2.5 0 16 16" enable-background="new -2.5 0 16 16" xml:space="preserve">
<path d="M1.137,13.143c0-0.154,0.057-0.289,0.17-0.402L6.048,8L1.307,3.259c-0.113-0.113-0.17-0.248-0.17-0.402
	c0-0.155,0.057-0.289,0.17-0.402l1.482-1.482c0.113-0.113,0.247-0.17,0.402-0.17s0.289,0.057,0.402,0.17l6.625,6.625
	c0.113,0.113,0.17,0.248,0.17,0.402s-0.057,0.289-0.17,0.402l-6.625,6.625c-0.113,0.113-0.247,0.17-0.402,0.17
	s-0.289-0.057-0.402-0.17l-1.482-1.482C1.194,13.432,1.137,13.297,1.137,13.143z"/>
</svg>
