<?xml version="1.0" encoding="utf-8"?>
<!-- Generator: Adobe Illustrator 16.0.0, SVG Export Plug-In . SVG Version: 6.00 Build 0)  -->
<!DOCTYPE svg PUBLIC "-//W3C//DTD SVG 1.1//EN" "http://www.w3.org/Graphics/SVG/1.1/DTD/svg11.dtd">
<svg version="1.1" id="Layer_1" xmlns="http://www.w3.org/2000/svg" xmlns:xlink="http://www.w3.org/1999/xlink" x="0px" y="0px"
	 width="16px" height="16px" viewBox="0 0 16 16" enable-background="new 0 0 16 16" xml:space="preserve">
<path d="M0,8.001c0-0.154,0.057-0.289,0.17-0.402l6.625-6.625c0.113-0.113,0.248-0.17,0.402-0.17s0.289,0.057,0.402,0.17L9.08,2.456
	c0.111,0.113,0.17,0.247,0.17,0.402c0,0.154-0.059,0.288-0.17,0.401L4.339,8.001l4.741,4.741c0.111,0.111,0.17,0.248,0.17,0.4
	c0,0.154-0.059,0.289-0.17,0.402l-1.481,1.48c-0.113,0.113-0.248,0.17-0.401,0.17s-0.288-0.057-0.401-0.17L0.169,8.403
	C0.057,8.29,0,8.155,0,8.001z"/>
<path d="M6.75,8.001c0-0.154,0.057-0.289,0.17-0.402l6.625-6.625c0.113-0.113,0.248-0.17,0.402-0.17s0.289,0.057,0.402,0.17
	l1.48,1.482C15.941,2.569,16,2.703,16,2.858c0,0.154-0.059,0.288-0.17,0.401l-4.741,4.742l4.741,4.741
	c0.111,0.111,0.17,0.248,0.17,0.4c0,0.154-0.059,0.289-0.17,0.402l-1.48,1.48c-0.113,0.113-0.248,0.17-0.402,0.17
	c-0.152,0-0.287-0.057-0.4-0.17L6.919,8.403C6.807,8.29,6.75,8.155,6.75,8.001z"/>
</svg>
