<?xml version="1.0" encoding="utf-8"?>
<!-- Generator: Adobe Illustrator 16.0.0, SVG Export Plug-In . SVG Version: 6.00 Build 0)  -->
<!DOCTYPE svg PUBLIC "-//W3C//DTD SVG 1.1//EN" "http://www.w3.org/Graphics/SVG/1.1/DTD/svg11.dtd">
<svg version="1.1" id="Layer_1" xmlns="http://www.w3.org/2000/svg" xmlns:xlink="http://www.w3.org/1999/xlink" x="0px" y="0px"
	 width="16px" height="16px" viewBox="0 0 16 16" enable-background="new 0 0 16 16" xml:space="preserve">
<path d="M2.604,8.001c0-0.154,0.057-0.289,0.17-0.402l6.625-6.625c0.113-0.113,0.248-0.17,0.402-0.17s0.289,0.057,0.402,0.17
	l1.48,1.482c0.113,0.113,0.17,0.247,0.17,0.402c0,0.154-0.057,0.288-0.17,0.401l-4.74,4.742l4.741,4.741
	c0.112,0.112,0.17,0.248,0.17,0.401c0,0.154-0.058,0.289-0.17,0.402l-1.481,1.48c-0.113,0.113-0.248,0.17-0.401,0.17
	c-0.154,0-0.289-0.057-0.402-0.17L2.773,8.403C2.661,8.29,2.604,8.155,2.604,8.001z"/>
</svg>
