<svg xmlns="http://www.w3.org/2000/svg" width="18" height="24" viewBox="0 0 18 24">
  <path fill="#515251" fill-rule="evenodd" d="M6.1802,11.9977 L16.1402,3.4607 C16.3502,3.2807 16.3742,2.9657 16.1952,2.7557 L13.9822,0.1737 C13.8022,-0.0373 13.4862,-0.0603 13.2772,0.1197 L-0.1408,11.6177 C-0.2518,11.7127 -0.3148,11.8517 -0.3148,11.9977 C-0.3148,12.1437 -0.2518,12.2827 -0.1408,12.3767 L13.2772,23.8787 C13.3682,23.9567 13.4832,23.9987 13.6022,23.9987 C13.6152,23.9987 13.6282,23.9987 13.6402,23.9977 C13.7732,23.9877 13.8962,23.9257 13.9822,23.8247 L16.1952,21.2427 C16.3742,21.0327 16.3502,20.7177 16.1402,20.5377 L6.1802,11.9977 Z" transform="translate(1)"/>
</svg>
