<?xml version="1.0" encoding="utf-8"?>
<!-- Generator: Adobe Illustrator 16.0.0, SVG Export Plug-In . SVG Version: 6.00 Build 0)  -->
<!DOCTYPE svg PUBLIC "-//W3C//DTD SVG 1.1//EN" "http://www.w3.org/Graphics/SVG/1.1/DTD/svg11.dtd">
<svg version="1.1" id="Layer_1" xmlns="http://www.w3.org/2000/svg" xmlns:xlink="http://www.w3.org/1999/xlink" x="0px" y="0px"
	 width="12px" height="16px" viewBox="0 0 12 16" enable-background="new 0 0 12 16" xml:space="preserve">
<path fill="#515251" d="M11.883,7.748L2.938,0.081c-0.067-0.058-0.151-0.086-0.243-0.08C2.607,0.009,2.525,0.05,2.468,0.117
	L0.993,1.838c-0.12,0.139-0.104,0.35,0.036,0.469L7.67,8.001l-6.641,5.691c-0.14,0.119-0.156,0.33-0.036,0.471l1.475,1.722
	c0.066,0.077,0.16,0.116,0.253,0.116c0.077,0,0.154-0.025,0.217-0.08l8.945-7.666C11.957,8.192,12,8.099,12,8.001
	S11.957,7.812,11.883,7.748"/>
</svg>
