<?xml version="1.0" encoding="utf-8"?>
<!-- Generator: Adobe Illustrator 16.0.0, SVG Export Plug-In . SVG Version: 6.00 Build 0)  -->
<!DOCTYPE svg PUBLIC "-//W3C//DTD SVG 1.1//EN" "http://www.w3.org/Graphics/SVG/1.1/DTD/svg11.dtd">
<svg version="1.1" id="Layer_1" xmlns="http://www.w3.org/2000/svg" xmlns:xlink="http://www.w3.org/1999/xlink" x="0px" y="0px"
	 width="16px" height="16px" viewBox="0 0 16 16" enable-background="new 0 0 16 16" xml:space="preserve">
<path d="M0,13.143c0-0.153,0.057-0.289,0.17-0.401L4.911,8L0.17,3.259C0.057,3.146,0,3.011,0,2.857c0-0.155,0.057-0.289,0.17-0.402
	l1.482-1.482c0.113-0.113,0.247-0.17,0.402-0.17c0.155,0,0.289,0.057,0.402,0.17L9.08,7.598C9.193,7.711,9.252,7.846,9.252,8
	S9.193,8.289,9.08,8.402l-6.625,6.625c-0.113,0.113-0.247,0.17-0.402,0.17c-0.155,0-0.289-0.057-0.402-0.17L0.17,13.545
	C0.057,13.432,0,13.297,0,13.143z"/>
<path d="M6.748,13.143c0-0.153,0.057-0.289,0.17-0.401L11.658,8l-4.74-4.741c-0.113-0.113-0.17-0.248-0.17-0.402
	c0-0.155,0.057-0.289,0.17-0.402L8.4,0.973c0.112-0.113,0.246-0.17,0.401-0.17s0.289,0.057,0.401,0.17l6.625,6.625
	C15.941,7.711,16,7.846,16,8s-0.059,0.289-0.172,0.402l-6.625,6.625c-0.112,0.113-0.246,0.17-0.401,0.17s-0.289-0.057-0.401-0.17
	l-1.482-1.482C6.805,13.432,6.748,13.297,6.748,13.143z"/>
</svg>
