<?xml version="1.0" encoding="utf-8"?>
<!-- Generator: Adobe Illustrator 16.0.0, SVG Export Plug-In . SVG Version: 6.00 Build 0)  -->
<!DOCTYPE svg PUBLIC "-//W3C//DTD SVG 1.1//EN" "http://www.w3.org/Graphics/SVG/1.1/DTD/svg11.dtd">
<svg version="1.1" id="Layer_1" xmlns="http://www.w3.org/2000/svg" xmlns:xlink="http://www.w3.org/1999/xlink" x="0px" y="0px"
	 width="12px" height="16px" viewBox="0 0 12 16" enable-background="new 0 0 12 16" xml:space="preserve">
<path fill="#515251" d="M4.244,7.999l6.64-5.691c0.14-0.12,0.156-0.33,0.037-0.47L9.445,0.117c-0.12-0.141-0.331-0.156-0.471-0.036
	L0.029,7.747C-0.045,7.81-0.087,7.903-0.087,8s0.042,0.19,0.116,0.253l8.946,7.668C9.036,15.974,9.111,16,9.191,16
	c0.009,0,0.019,0,0.025,0c0.088-0.006,0.17-0.048,0.229-0.115l1.476-1.722c0.119-0.141,0.103-0.35-0.037-0.471L4.244,7.999z"/>
</svg>
