<svg xmlns="http://www.w3.org/2000/svg" width="18" height="24" viewBox="0 0 18 24">
  <path fill="#515251" fill-rule="evenodd" d="M16.1406,11.6212 L2.7226,0.1202 C2.6226,0.0332 2.4956,-0.0088 2.3586,0.0002 C2.2266,0.0112 2.1036,0.0732 2.0176,0.1742 L-0.1954,2.7562 C-0.3744,2.9652 -0.3504,3.2812 -0.1414,3.4602 L9.8196,12.0002 L-0.1404,20.5372 C-0.3504,20.7172 -0.3754,21.0332 -0.1954,21.2422 L2.0176,23.8242 C2.1166,23.9402 2.2566,23.9992 2.3976,23.9992 C2.5126,23.9992 2.6286,23.9592 2.7226,23.8792 L16.1406,12.3802 C16.2516,12.2852 16.3156,12.1462 16.3156,12.0002 C16.3156,11.8542 16.2516,11.7162 16.1406,11.6212" transform="translate(1)"/>
</svg>
