<?xml version="1.0" encoding="utf-8"?>
<!-- Generator: Adobe Illustrator 16.0.0, SVG Export Plug-In . SVG Version: 6.00 Build 0)  -->
<!DOCTYPE svg PUBLIC "-//W3C//DTD SVG 1.1//EN" "http://www.w3.org/Graphics/SVG/1.1/DTD/svg11.dtd">
<svg version="1.1" id="Layer_1" xmlns="http://www.w3.org/2000/svg" xmlns:xlink="http://www.w3.org/1999/xlink" x="0px" y="0px"
	 width="16px" height="16px" viewBox="0 0 16 16" enable-background="new 0 0 16 16" xml:space="preserve">
<path fill="#58595B" d="M11.467,8.008l4.436-4.417C15.965,3.528,16,3.444,16,3.355c0.002-0.088-0.033-0.173-0.098-0.235l-2.99-3.003
	c-0.062-0.062-0.146-0.097-0.234-0.098l0,0c-0.088,0-0.174,0.035-0.236,0.097L8.008,4.533L3.589,0.098
	C3.527,0.036,3.442,0.001,3.353,0l0,0C3.265,0,3.181,0.035,3.118,0.097L0.116,3.089c-0.13,0.13-0.131,0.34-0.001,0.471l4.417,4.434
	l-4.434,4.418c-0.13,0.131-0.131,0.342-0.001,0.471l2.99,3.002c0.063,0.062,0.148,0.098,0.236,0.098l0,0
	c0.088,0,0.173-0.034,0.234-0.098l4.436-4.416l4.417,4.434C12.475,15.969,12.561,16,12.646,16c0.084,0,0.17-0.031,0.234-0.097
	l3.002-2.99c0.131-0.131,0.131-0.341,0-0.472L11.467,8.008z"/>
</svg>
