<svg xmlns="http://www.w3.org/2000/svg" width="25" height="25" viewBox="0 0 25 25">
  <path fill="#58595B" fill-rule="evenodd" d="M16.7379,12.0638 L23.3969,5.4298 C23.4909,5.3368 23.5439,5.2098 23.5439,5.0768 C23.5449,4.9438 23.4919,4.8168 23.3989,4.7228 L18.9069,0.2138 C18.8139,0.1208 18.6859,0.0678 18.5539,0.0668 L18.5529,0.0668 C18.4209,0.0668 18.2939,0.1198 18.1999,0.2128 L11.5409,6.8468 L4.9069,0.1868 C4.8139,0.0938 4.6859,0.0408 4.5539,0.0398 L4.5529,0.0398 C4.4209,0.0398 4.2939,0.0928 4.1999,0.1858 L-0.3081,4.6778 C-0.5041,4.8728 -0.5051,5.1888 -0.3101,5.3848 L6.3239,12.0438 L-0.3351,18.6778 C-0.5311,18.8728 -0.5321,19.1888 -0.3371,19.3848 L4.1539,23.8938 C4.2479,23.9868 4.3749,24.0398 4.5079,24.0398 L4.5089,24.0398 C4.6409,24.0398 4.7679,23.9878 4.8609,23.8938 L11.5209,17.2608 L18.1539,23.9198 C18.2519,24.0188 18.3799,24.0668 18.5089,24.0668 C18.6359,24.0668 18.7639,24.0188 18.8609,23.9208 L23.3699,19.4298 C23.5659,19.2348 23.5659,18.9188 23.3709,18.7228 L16.7379,12.0638 Z" transform="translate(1)"/>
</svg>
