<?xml version="1.0" encoding="utf-8"?>
<!-- Generator: Adobe Illustrator 16.0.0, SVG Export Plug-In . SVG Version: 6.00 Build 0)  -->
<!DOCTYPE svg PUBLIC "-//W3C//DTD SVG 1.1//EN" "http://www.w3.org/Graphics/SVG/1.1/DTD/svg11.dtd">
<svg version="1.1" id="Layer_1" xmlns="http://www.w3.org/2000/svg" xmlns:xlink="http://www.w3.org/1999/xlink" x="0px" y="0px"
	 width="24px" height="24px" viewBox="9.959 9.958 24 24" enable-background="new 9.959 9.958 24 24" xml:space="preserve">
<path d="M32,18H12c-1.104,0-2-0.896-2-2s0.896-2,2-2h20c1.104,0,2,0.896,2,2S33.104,18,32,18z"/>
<path d="M32,24H12c-1.104,0-2-0.896-2-2c0-1.104,0.896-2,2-2h20c1.104,0,2,0.896,2,2C34,23.104,33.104,24,32,24z"/>
<path d="M32,30H12c-1.104,0-2-0.896-2-2s0.896-2,2-2h20c1.104,0,2,0.896,2,2S33.104,30,32,30z"/>
</svg>
