<?xml version="1.0" encoding="utf-8"?>
<!-- Generator: Adobe Illustrator 16.0.0, SVG Export Plug-In . SVG Version: 6.00 Build 0)  -->
<!DOCTYPE svg PUBLIC "-//W3C//DTD SVG 1.1//EN" "http://www.w3.org/Graphics/SVG/1.1/DTD/svg11.dtd">
<svg version="1.1" id="Layer_1" xmlns="http://www.w3.org/2000/svg" xmlns:xlink="http://www.w3.org/1999/xlink" x="0px" y="0px"
	 width="16px" height="16px" viewBox="0 0 16 16" enable-background="new 0 0 16 16" xml:space="preserve">
<path d="M1.143,13.143V12c0-0.154,0.057-0.289,0.17-0.402s0.248-0.17,0.402-0.17h12.571c0.155,0,0.289,0.057,0.402,0.17
	s0.17,0.248,0.17,0.402v1.143c0,0.155-0.057,0.289-0.17,0.402s-0.247,0.17-0.402,0.17H1.714c-0.154,0-0.289-0.057-0.402-0.17
	S1.143,13.298,1.143,13.143z M1.143,8.57V7.428c0-0.154,0.057-0.289,0.17-0.402s0.248-0.17,0.402-0.17h12.571
	c0.155,0,0.289,0.057,0.402,0.17s0.17,0.248,0.17,0.402V8.57c0,0.155-0.057,0.289-0.17,0.402s-0.247,0.17-0.402,0.17H1.714
	c-0.154,0-0.289-0.057-0.402-0.17S1.143,8.726,1.143,8.57z M1.143,4V2.857c0-0.155,0.057-0.289,0.17-0.402s0.248-0.17,0.402-0.17
	h12.571c0.155,0,0.289,0.057,0.402,0.17s0.17,0.247,0.17,0.402V4c0,0.155-0.057,0.289-0.17,0.402s-0.247,0.17-0.402,0.17H1.714
	c-0.154,0-0.289-0.057-0.402-0.17S1.143,4.155,1.143,4z"/>
</svg>
