<?xml version="1.0" encoding="utf-8"?>
<!-- Generator: Adobe Illustrator 16.0.0, SVG Export Plug-In . SVG Version: 6.00 Build 0)  -->
<!DOCTYPE svg PUBLIC "-//W3C//DTD SVG 1.1//EN" "http://www.w3.org/Graphics/SVG/1.1/DTD/svg11.dtd">
<svg version="1.1" id="Layer_1" xmlns="http://www.w3.org/2000/svg" xmlns:xlink="http://www.w3.org/1999/xlink" x="0px" y="0px"
	 width="24.006px" height="24px" viewBox="0.531 0.007 24.006 24" enable-background="new 0.531 0.007 24.006 24"
	 xml:space="preserve">
<path fill="#58595B" d="M24.039,8.029l-7.5-0.014l0.014-7.5c0.001-0.133-0.053-0.26-0.146-0.354
	c-0.093-0.094-0.221-0.147-0.353-0.147L9.032,0.007H9.031c-0.132,0-0.259,0.053-0.353,0.147c-0.094,0.093-0.147,0.22-0.147,0.353
	v7.5h-7.5c-0.276,0-0.5,0.224-0.5,0.5v7c0,0.277,0.224,0.5,0.5,0.5h7.5v7.5c0,0.277,0.224,0.5,0.5,0.5h7c0.275,0,0.5-0.223,0.5-0.5
	v-7.5h7.5c0.275,0,0.5-0.223,0.5-0.5l0.006-6.978C24.537,8.254,24.314,8.03,24.039,8.029"/>
</svg>
