<?xml version="1.0" encoding="utf-8"?>
<!-- Generator: Adobe Illustrator 16.0.0, SVG Export Plug-In . SVG Version: 6.00 Build 0)  -->
<!DOCTYPE svg PUBLIC "-//W3C//DTD SVG 1.1//EN" "http://www.w3.org/Graphics/SVG/1.1/DTD/svg11.dtd">
<svg version="1.1" id="Layer_1" xmlns="http://www.w3.org/2000/svg" xmlns:xlink="http://www.w3.org/1999/xlink" x="0px" y="0px"
	 width="16px" height="16px" viewBox="-1.5 0 16 16" enable-background="new -1.5 0 16 16" xml:space="preserve">
<g>
	<line fill="none" stroke="#449FDB" x1="0" y1="0" x2="0" y2="0"/>
</g>
<path d="M0,8.857V7.143c0-0.238,0.083-0.44,0.25-0.607c0.167-0.167,0.369-0.25,0.607-0.25h3.714V2.572
	c0-0.238,0.083-0.44,0.25-0.607c0.167-0.167,0.369-0.25,0.607-0.25h1.714c0.237,0,0.439,0.083,0.606,0.25s0.25,0.369,0.25,0.607
	v3.714h3.714c0.238,0,0.44,0.083,0.607,0.25c0.166,0.167,0.25,0.369,0.25,0.607v1.715c0,0.236-0.084,0.439-0.25,0.605
	c-0.167,0.168-0.369,0.25-0.607,0.25H7.999v3.715c0,0.238-0.083,0.439-0.25,0.607c-0.167,0.166-0.369,0.25-0.606,0.25H5.428
	c-0.238,0-0.44-0.084-0.607-0.25c-0.167-0.168-0.25-0.369-0.25-0.607V9.713H0.857c-0.238,0-0.44-0.082-0.607-0.25
	C0.083,9.297,0,9.094,0,8.857z"/>
</svg>
