<?xml version="1.0" encoding="utf-8"?>
<!-- Generator: Adobe Illustrator 16.0.0, SVG Export Plug-In . SVG Version: 6.00 Build 0)  -->
<!DOCTYPE svg PUBLIC "-//W3C//DTD SVG 1.1//EN" "http://www.w3.org/Graphics/SVG/1.1/DTD/svg11.dtd">
<svg version="1.1" id="Layer_1" xmlns="http://www.w3.org/2000/svg" xmlns:xlink="http://www.w3.org/1999/xlink" x="0px" y="0px"
	 width="16px" height="15.997px" viewBox="0 0 16 15.997" enable-background="new 0 0 16 15.997" xml:space="preserve">
<path fill="#58595B" d="M15.668,5.347l-4.999-0.009l0.01-4.999c0-0.089-0.035-0.173-0.098-0.236s-0.147-0.098-0.235-0.098L5.666,0
	l0,0C5.577,0,5.493,0.036,5.431,0.098C5.366,0.16,5.332,0.245,5.332,0.334v5H0.333C0.149,5.333,0,5.482,0,5.666v4.666
	c0,0.186,0.149,0.334,0.333,0.334h4.999v4.998c0,0.186,0.149,0.334,0.333,0.334h4.666c0.184,0,0.333-0.148,0.333-0.334v-4.998h4.999
	c0.183,0,0.332-0.148,0.332-0.334L16,5.681C16,5.498,15.852,5.348,15.668,5.347"/>
</svg>
