<?xml version="1.0" encoding="utf-8"?>
<!-- Generator: Adobe Illustrator 16.0.0, SVG Export Plug-In . SVG Version: 6.00 Build 0)  -->
<!DOCTYPE svg PUBLIC "-//W3C//DTD SVG 1.1//EN" "http://www.w3.org/Graphics/SVG/1.1/DTD/svg11.dtd">
<svg version="1.1" id="Layer_1" xmlns="http://www.w3.org/2000/svg" xmlns:xlink="http://www.w3.org/1999/xlink" x="0px" y="0px"
	 width="16px" height="16px" viewBox="0 0 16 16" enable-background="new 0 0 16 16" xml:space="preserve">
<path fill="#58595B" d="M6.001,1.334c2.574,0,4.667,2.093,4.667,4.667c0,2.573-2.095,4.667-4.667,4.667
	c-2.573,0-4.667-2.094-4.667-4.667C1.334,3.427,3.428,1.334,6.001,1.334 M6.001,12c1.421,0,2.726-0.499,3.755-1.326l5.104,5.131
	C14.991,15.936,15.161,16,15.334,16c0.169,0,0.34-0.064,0.47-0.193c0.262-0.261,0.262-0.683,0.003-0.942l-5.11-5.138
	c0.813-1.023,1.306-2.317,1.306-3.726c0-3.308-2.691-6-6-6c-3.309,0-6,2.692-6,6S2.692,12,6.001,12"/>
</svg>
