<?xml version="1.0" encoding="utf-8"?>
<!-- Generator: Adobe Illustrator 16.0.0, SVG Export Plug-In . SVG Version: 6.00 Build 0)  -->
<!DOCTYPE svg PUBLIC "-//W3C//DTD SVG 1.1//EN" "http://www.w3.org/Graphics/SVG/1.1/DTD/svg11.dtd">
<svg version="1.1" id="Layer_1" xmlns="http://www.w3.org/2000/svg" xmlns:xlink="http://www.w3.org/1999/xlink" x="0px" y="0px"
	 width="16px" height="16px" viewBox="8 8 16 16" enable-background="new 8 8 16 16" xml:space="preserve">
<g id="icomoon-ignore">
	<line fill="none" stroke="#449FDB" x1="8" y1="8" x2="8" y2="8"/>
</g>
<path d="M23.504,21.615l-3.79-3.224c-0.392-0.353-0.811-0.515-1.149-0.499c0.895-1.048,1.435-2.407,1.435-3.893c0-3.313-2.687-6-6-6
	c-3.313,0-6,2.687-6,6c0,3.313,2.687,6,6,6c1.486,0,2.845-0.54,3.893-1.435c-0.016,0.339,0.146,0.758,0.499,1.149l3.224,3.79
	c0.552,0.612,1.454,0.664,2.004,0.115C24.168,23.069,24.116,22.167,23.504,21.615z M14,18c-2.209,0-4-1.792-4-4c0-2.209,1.791-4,4-4
	c2.208,0,4,1.791,4,4C18,16.208,16.208,18,14,18z"/>
</svg>
