<?xml version="1.0" encoding="utf-8"?>
<!-- Generator: Adobe Illustrator 16.0.0, SVG Export Plug-In . SVG Version: 6.00 Build 0)  -->
<!DOCTYPE svg PUBLIC "-//W3C//DTD SVG 1.1//EN" "http://www.w3.org/Graphics/SVG/1.1/DTD/svg11.dtd">
<svg version="1.1" id="Layer_1" xmlns="http://www.w3.org/2000/svg" xmlns:xlink="http://www.w3.org/1999/xlink" x="0px" y="0px"
	 width="24px" height="24px" viewBox="0 0 24 24" enable-background="new 0 0 24 24" xml:space="preserve">
<g>
	<g>
		<path fill="#231F20" d="M8.5,17C3.813,17,0,13.187,0,8.5C0,3.813,3.813,0,8.5,0C13.187,0,17,3.813,17,8.5
			C17,13.187,13.187,17,8.5,17z M8.5,1C4.364,1,1,4.364,1,8.5S4.364,16,8.5,16S16,12.636,16,8.5S12.636,1,8.5,1z"/>
	</g>
	<g>
		<path fill="#231F20" d="M23.5,24c-0.128,0-0.256-0.049-0.354-0.146l-9.344-9.344c-0.195-0.195-0.195-0.512,0-0.707
			s0.512-0.195,0.707,0l9.344,9.344c0.195,0.195,0.195,0.512,0,0.707C23.756,23.951,23.628,24,23.5,24z"/>
	</g>
</g>
</svg>
